#!OML:ASF E:\inclinewalkrobotboard\Project 1\Capture day 1\Session 1\subject1.ASF
:FULLY-SPECIFIED
:DEGREES
293
root 9.10641 16.5352 7.26259 -167.976 -1.50073 179.828
lowerback -12.2747 0.875766 -6.44618
upperback -0.534888 1.89328 1.14231
thorax 6.07887 0.69045 5.17815
lowerneck -5.99073 0.217092 -4.10232
upperneck 5.88652 0.321049 4.31685
head 2.94878 0.206992 2.15445
rclavicle -4.56894e-014 8.49804e-015
rhumerus -52.5814 -46.4432 -53.9887
rradius 15.3157
rwrist 31.9573
rhand -12.9341 -38.3751
rfingers 7.12502
rthumb 13.1567 -67.94
lclavicle -4.56894e-014 8.49804e-015
lhumerus -31.5229 15.6529 82.8653
lradius 14.8878
lwrist -34.3348
lhand -26.1453 -16.3655
lfingers 7.12502
lthumb 0.405393 13.6138
rfemur -7.57438 2.86275 20.7163
rtibia 7.9554
rfoot 346.378 0.963129
rtoes -23.7118
lfemur -6.83404 -6.27188 -22.026
ltibia 7.68911
lfoot -14.984 1.11885
ltoes -55.683
294
root 9.10875 16.5359 7.2579 -167.953 -1.4397 179.86
lowerback -12.2979 0.856391 -6.44987
upperback -0.527407 1.87013 1.13947
thorax 6.10301 0.677875 5.17445
lowerneck -5.9355 0.212767 -4.10877
upperneck 5.72175 0.311086 4.42569
head 2.88365 0.205637 2.18858
rclavicle 1.94685e-014 6.11263e-015
rhumerus -52.4679 -46.46 -54.1078
rradius 15.2728
rwrist 32.0872
rhand -13.0738 -38.1713
rfingers 7.12502
rthumb 13.0221 -67.7449
lclavicle 1.94685e-014 6.11263e-015
lhumerus -31.4271 15.6886 82.8829
lradius 14.84
lwrist -34.4593
lhand -26.24 -15.2731
lfingers 7.12502
lthumb 0.313925 14.7065
rfemur -7.61677 2.82303 20.7492
rtibia 7.99145
rfoot 346.367 1.01796
rtoes -23.9517
lfemur -6.84345 -6.27543 -21.9783
ltibia 7.68968
lfoot -15.0204 1.31523
ltoes -56.0065
295
root 9.11028 16.5366 7.24882 -167.964 -1.36688 179.884
lowerback -12.3511 0.844976 -6.46049
upperback -0.504417 1.86042 1.15485
thorax 6.15792 0.670012 5.19788
lowerneck -6.22285 0.165543 -4.06378
upperneck 5.93038 0.254882 4.3358
head 3.0111 0.178281 2.15461
rclavicle -9.93302e-015 -3.62782e-015
rhumerus -52.2443 -46.2867 -54.3878
rradius 15.2766
rwrist 32.0824
rhand -13.4221 -37.946
rfingers 7.12502
rthumb 12.6863 -67.5407
lclavicle -9.93302e-015 -3.62782e-015
lhumerus -31.3205 15.7046 82.9715
lradius 14.7781
lwrist -34.5398
lhand -26.5116 -16.5261
lfingers 7.12502
lthumb 0.0516174 13.4537
rfemur -7.55893 2.83535 20.7824
rtibia 7.93996
rfoot 346.367 1.04804
rtoes -24.1871
lfemur -6.7804 -6.24779 -21.9688
ltibia 7.66182
lfoot -15.0386 1.62892
ltoes -56.8278
296
root 9.11012 16.5363 7.23816 -167.973 -1.29777 179.9
lowerback -12.4124 0.832999 -6.46313
upperback -0.488689 1.84908 1.16324
thorax 6.21036 0.661708 5.20911
lowerneck -6.39052 0.164206 -4.03112
upperneck 6.03193 0.253606 4.32743
head 3.07763 0.179545 2.14947
rclavicle -1.56543e-014 1.14301e-015
rhumerus -52.0974 -46.1997 -54.5474
rradius 15.2359
rwrist 32.2284
rhand -13.7899 -37.7512
rfingers 7.12502
rthumb 12.3316 -67.3675
lclavicle -1.56543e-014 1.14301e-015
lhumerus -31.2407 15.4627 83.1474
lradius 14.7915
lwrist -34.2303
lhand -26.7437 -18.0494
lfingers 7.12502
lthumb -0.172534 11.9303
rfemur -7.47963 2.78892 20.7977
rtibia 7.85007
rfoot 346.433 1.16713
rtoes -24.1039
lfemur -6.69707 -6.18879 -21.9831
ltibia 7.61314
lfoot -15.04 1.85386
ltoes -57.4417
297
root 9.1106 16.535 7.22865 -167.953 -1.2435 179.979
lowerback -12.4911 0.824913 -6.41104
upperback -0.485419 1.8339 1.18754
thorax 6.26076 0.652906 5.20588
lowerneck -6.42704 0.182523 -4.02753
upperneck 5.99718 0.273612 4.40946
head 3.07239 0.19285 2.17732
rclavicle 4.81432e-015 -3.8763e-015
rhumerus -52.1008 -46.3589 -54.4328
rradius 15.1217
rwrist 32.5958
rhand -13.9052 -37.6252
rfingers 7.12502
rthumb 12.2205 -67.2481
lclavicle 4.81432e-015 -3.8763e-015
lhumerus -31.1489 15.3097 83.2574
lradius 14.7869
lwrist -34.0493
lhand -26.7147 -17.6054
lfingers 7.12502
lthumb -0.144503 12.3743
rfemur -7.43823 2.81293 20.8901
rtibia 7.74885
rfoot 346.506 1.26678
rtoes -23.707
lfemur -6.67275 -6.16618 -21.8991
ltibia 7.61499
lfoot -15.0838 1.93613
ltoes -57.541
298
root 9.11188 16.5338 7.22076 -167.918 -1.20431 179.996
lowerback -12.5373 0.808153 -6.42183
upperback -0.504657 1.81338 1.19512
thorax 6.26823 0.641809 5.21783
lowerneck -6.51471 0.18735 -4.0716
upperneck 6.04606 0.279326 4.48951
head 3.10658 0.198099 2.2147
rclavicle -1.03492e-014 -3.47873e-016
rhumerus -52.22 -46.5959 -54.1804
rradius 15.0357
rwrist 33.058
rhand -13.928 -37.5713
rfingers 7.12502
rthumb 12.1985 -67.1956
lclavicle -1.03492e-014 -3.47873e-016
lhumerus -31.0862 15.3464 83.2968
lradius 14.7943
lwrist -34.1016
lhand -26.2234 -15.3782
lfingers 7.12502
lthumb 0.329967 14.6013
rfemur -7.43026 2.79781 20.9136
rtibia 7.71044
rfoot 346.521 1.35954
rtoes -23.5725
lfemur -6.67388 -6.20358 -21.8835
ltibia 7.63975
lfoot -15.1331 1.98116
ltoes -57.4418
299
root 9.11246 16.5334 7.21336 -167.894 -1.11313 179.902
lowerback -12.554 0.793288 -6.53705
upperback -0.526756 1.81073 1.16651
thorax 6.2518 0.638029 5.25233
lowerneck -6.63346 0.183521 -4.16916
upperneck 6.17943 0.276134 4.57765
head 3.17671 0.197888 2.26623
rclavicle 3.42251e-014 1.57537e-014
rhumerus -52.2929 -46.7015 -54.0743
rradius 15.0345
rwrist 33.4602
rhand -14.1226 -37.5451
rfingers 7.12502
rthumb 12.0109 -67.1805
lclavicle 3.42251e-014 1.57537e-014
lhumerus -31.0703 15.3175 83.37
lradius 14.8986
lwrist -34.0303
lhand -25.7335 -14.8998
lfingers 7.12502
lthumb 0.803124 15.0785
rfemur -7.44007 2.73248 20.7991
rtibia 7.74169
rfoot 346.503 1.46111
rtoes -23.9352
lfemur -6.63719 -6.2158 -22.0156
ltibia 7.61562
lfoot -15.157 2.02564
ltoes -57.3194
300
root 9.11301 16.5336 7.20521 -167.918 -0.999669 179.803
lowerback -12.5434 0.78022 -6.66725
upperback -0.524135 1.8135 1.13463
thorax 6.24551 0.636247 5.29245
lowerneck -6.66428 0.183988 -4.1604
upperneck 6.20899 0.27467 4.59096
head 3.19293 0.197959 2.26998
rclavicle 3.11843e-014 5.31749e-015
rhumerus -52.2135 -46.6601 -54.2188
rradius 15.0971
rwrist 33.7021
rhand -14.1455 -37.6582
rfingers 7.12502
rthumb 11.9888 -67.2948
lclavicle 3.11843e-014 5.31749e-015
lhumerus -31.0667 15.2058 83.478
lradius 15.0575
lwrist -33.8435
lhand -26.0817 -18.6868
lfingers 7.12502
lthumb 0.466877 11.2925
rfemur -7.39212 2.74831 20.6794
rtibia 7.75105
rfoot 346.468 1.52259
rtoes -24.0085
lfemur -6.53964 -6.16358 -22.1489
ltibia 7.56498
lfoot -15.1815 1.934
ltoes -56.9913
301
root 9.11441 16.5337 7.19912 -167.929 -0.958143 179.695
lowerback -12.4715 0.740789 -6.81405
upperback -0.561493 1.77577 1.10828
thorax 6.16695 0.617514 5.33796
lowerneck -6.67069 0.215247 -3.97562
upperneck 6.20298 0.310876 4.44129
head 3.18783 0.215216 2.18679
rclavicle -9.38015e-016 3.52843e-015
rhumerus -52.052 -46.4567 -54.5321
rradius 15.1989
rwrist 33.6728
rhand -13.9096 -38.047
rfingers 7.12502
rthumb 12.2162 -67.6702
lclavicle -9.38015e-016 3.52843e-015
lhumerus -31.1297 15.1122 83.5865
lradius 15.2173
lwrist -33.747
lhand -26.1896 -18.0172
lfingers 7.12502
lthumb 0.36265 11.9622
rfemur -7.35268 2.78681 20.5573
rtibia 7.74725
rfoot 346.447 1.49989
rtoes -23.858
lfemur -6.50453 -6.13297 -22.2737
ltibia 7.56676
lfoot -15.2227 1.81037
ltoes -56.7422
302
root 9.1162 16.5328 7.19459 -167.895 -0.95295 179.651
lowerback -12.4066 0.701109 -6.89964
upperback -0.634512 1.7238 1.1141
thorax 6.057 0.594582 5.38021
lowerneck -6.66096 0.245459 -3.89238
upperneck 6.23484 0.348576 4.35463
head 3.19388 0.232547 2.14428
rclavicle -1.31291e-014 4.96962e-017
rhumerus -51.9855 -46.2946 -54.6798
rradius 15.2493
rwrist 33.5753
rhand -13.7312 -38.3089
rfingers 7.12502
rthumb 12.3883 -67.9218
lclavicle -1.31291e-014 4.96962e-017
lhumerus -31.1934 14.9066 83.7666
lradius 15.3523
lwrist -33.576
lhand -26.3964 -17.4914
lfingers 7.12502
lthumb 0.162858 12.4883
rfemur -7.35036 2.82531 20.5173
rtibia 7.71496
rfoot 346.466 1.44677
rtoes -23.8844
lfemur -6.57473 -6.13758 -22.3206
ltibia 7.66434
lfoot -15.2671 1.89642
ltoes -57.0129
303
root 9.11805 16.5323 7.19057 -167.871 -0.939624 179.718
lowerback -12.3497 0.679842 -6.87954
upperback -0.68925 1.68181 1.15079
thorax 5.97188 0.578085 5.39787
lowerneck -6.56317 0.236805 -3.98272
upperneck 6.23015 0.332561 4.4656
head 3.17562 0.224844 2.1963
rclavicle 1.44958e-014 -5.26779e-015
rhumerus -52.1172 -46.383 -54.4658
rradius 15.214
rwrist 33.7962
rhand -13.6341 -38.3095
rfingers 7.12502
rthumb 12.4819 -67.9167
lclavicle 1.44958e-014 -5.26779e-015
lhumerus -31.1408 14.4672 84.048
lradius 15.4521
lwrist -32.9817
lhand -26.4911 -17.3164
lfingers 7.12502
lthumb 0.0713861 12.6633
rfemur -7.35563 2.87101 20.6064
rtibia 7.68467
rfoot 346.486 1.40105
rtoes -24.164
lfemur -6.64002 -6.14298 -22.2347
ltibia 7.77135
lfoot -15.2946 2.01446
ltoes -57.2552
304
root 9.11928 16.5326 7.18793 -167.844 -0.925043 179.816
lowerback -12.2887 0.671353 -6.81527
upperback -0.730059 1.65184 1.18775
thorax 5.89895 0.568148 5.39291
lowerneck -6.52509 0.208461 -3.97285
upperneck 6.28336 0.286673 4.49643
head 3.18901 0.202241 2.20317
rclavicle 2.62178e-014 8.79622e-015
rhumerus -52.3182 -46.597 -54.1252
rradius 15.1524
rwrist 34.2486
rhand -13.6194 -38.297
rfingers 7.12502
rthumb 12.496 -67.9034
lclavicle 2.62178e-014 8.79622e-015
lhumerus -31.0047 14.1312 84.2861
lradius 15.5004
lwrist -32.3963
lhand -26.3326 -17.5757
lfingers 7.12502
lthumb 0.224529 12.4039
rfemur -7.41723 2.86035 20.7271
rtibia 7.72593
rfoot 346.5 1.41598
rtoes -24.3347
lfemur -6.66594 -6.13241 -22.1053
ltibia 7.78569
lfoot -15.2944 1.98242
ltoes -57.0737
305
root 9.11997 16.5324 7.18256 -167.806 -0.930422 179.922
lowerback -12.3105 0.678143 -6.73176
upperback -0.748244 1.64638 1.22743
thorax 5.89351 0.56733 5.38721
lowerneck -6.45608 0.167026 -3.86837
upperneck 6.25563 0.225519 4.41719
head 3.16783 0.170809 2.15297
rclavicle -2.89542e-014 -6.95746e-015
rhumerus -52.2575 -46.5506 -54.1727
rradius 15.1488
rwrist 34.286
rhand -13.6111 -38.4506
rfingers 7.12502
rthumb 12.5041 -68.0565
lclavicle -2.89542e-014 -6.95746e-015
lhumerus -30.9218 13.6919 84.5958
lradius 15.7017
lwrist -31.9073
lhand -26.1208 -17.6374
lfingers 7.12502
lthumb 0.429079 12.3419
rfemur -7.44355 2.87713 20.8622
rtibia 7.72217
rfoot 346.507 1.46784
rtoes -23.921
lfemur -6.66414 -6.13341 -21.9719
ltibia 7.74318
lfoot -15.3041 1.99657
ltoes -57.1058
306
root 9.12051 16.5323 7.17299 -167.746 -0.957746 180.068
lowerback -12.4384 0.688821 -6.60369
upperback -0.747722 1.64675 1.27789
thorax 5.96751 0.566453 5.37261
lowerneck -6.30105 0.0961095 -3.82447
upperneck 6.12557 0.123757 4.43123
head 3.09818 0.120343 2.14106
rclavicle 1.51946e-014 3.18055e-015
rhumerus -52.1526 -46.4005 -54.3409
rradius 15.2046
rwrist 34.1473
rhand -13.5735 -38.4312
rfingers 7.12502
rthumb 12.5404 -68.0349
lclavicle 1.51946e-014 3.18055e-015
lhumerus -30.8809 13.0434 84.997
lradius 15.9997
lwrist -31.3749
lhand -26.122 -17.3329
lfingers 7.12502
lthumb 0.427878 12.6464
rfemur -7.4323 2.95084 21.0516
rtibia 7.66253
rfoot 346.501 1.44038
rtoes -23.4386
lfemur -6.66891 -6.13948 -21.7891
ltibia 7.69812
lfoot -15.3064 2.10001
ltoes -57.4179
